# xmcd
#
# Track frame offsets:
#	182
#	11285
#	34695
#	52502
#	68365
#	89085
#	106387
#	127065
#	155662
#	165617
#	186617
#	214837
#	233552
#	251125
#	268722
#	298785
#
# Disc length: 4262 seconds
#
# Revision: 0
# Processed by: cddbd v1.5.2PL0 Copyright (c) Steve Scherf et al.
# Submitted via: dBpowerAMP V4.0
#
DISCID=e110a410
DTITLE=Senior Dixieland Praha and Marketa Limonova - Live Concert in Reduta JazzClub
DYEAR=1994
DGENRE=Blues
TTITLE0=Introduction
TTITLE1=Just a little while to stay here
TTITLE2=Whining boy blues
TTITLE3=I found a new baby
TTITLE4=I ain't gonna give nobody none of this jelly roll
TTITLE5=Doctor jazz
TTITLE6=Weary blues
TTITLE7=Saint Louis blues
TTITLE8=Boogie - woogie
TTITLE9=That's a plenty
TTITLE10=Swanee river
TTITLE11=Wabash blues
TTITLE12=Buddy Bolden's blues
TTITLE13=John Brown
TTITLE14=Some of these days
TTITLE15=Bill Bailey, won't you please come home
EXTD=
EXTT0=
EXTT1=
EXTT2=
EXTT3=
EXTT4=
EXTT5=
EXTT6=
EXTT7=
EXTT8=
EXTT9=
EXTT10=
EXTT11=
EXTT12=
EXTT13=
EXTT14=
EXTT15=
PLAYORDER=
